<svg xmlns="http://www.w3.org/2000/svg" viewBox="0 0 1757.939 998.4133"><defs><style>.cls-1{fill:#ccd0e2;}.cls-2{fill:#60ad6b;}.cls-3{fill:#86bfa8;}.cls-4{stroke:#2b3247;}.cls-4,.cls-5,.cls-6{fill:none;stroke-linecap:round;stroke-linejoin:round;stroke-width:5px;}.cls-7{fill:#eaebef;}.cls-8{fill:#7f9dea;}.cls-9{fill:#73a0ef;}.cls-5{stroke:#2b493e;}.cls-10{fill:#4267ba;}.cls-6{stroke:#203772;}.cls-11{fill:#61a38d;}</style></defs><g id="Linea-horizontal"><line class="cls-6" x1="995.9852" y1="885.8316" x2="1085.2497" y2="875.7598"/></g><g id="Linea-horizontal-2"><line class="cls-6" x1="1094.3583" y1="776.925" x2="841.1816" y2="885.8316"/></g><g id="Linea-horizontal-3"><line class="cls-6" x1="576.9887" y1="943.7039" x2="1099.8234" y2="664.2062"/></g><g id="Rayos"><line class="cls-6" x1="458.5767" y1="59.8956" x2="576.9887" y2="164.8306"/><line class="cls-6" x1="608.995" y1="24.1562" x2="635.2839" y2="143.6981"/><line class="cls-6" x1="757.3394" y1="22.3345" x2="695.5972" y2="135.2814"/></g><g id="Circulito"><circle class="cls-9" cx="1678.588" cy="865.7341" r="59.8178"/><circle class="cls-6" cx="1683.2242" cy="855.5237" r="59.8178"/></g><g id="Circulito-2"><circle class="cls-9" cx="1109.0215" cy="156.8364" r="59.8178"/><circle class="cls-6" cx="1113.6577" cy="146.626" r="59.8178"/></g><g id="Circulito-3"><circle class="cls-9" cx="494.1309" cy="686.5278" r="59.8178"/><circle class="cls-6" cx="498.7671" cy="676.3173" r="59.8178"/></g><g id="circulito"><circle class="cls-10" cx="155.5159" cy="836.7333" r="99.2299"/><circle class="cls-6" cx="163.2067" cy="819.7955" r="99.2299"/></g><g id="Resorte"><path class="cls-4" d="M1692.087,182.4964c-13.6284,4.1812-24.8839,13.7915-34.9018,23.9334-25.5006,25.8162-45.784,56.7648-59.2794,90.4491,7.3617,7.6206,15.8581,15.7672,26.4495,16.0695,2.3508,.0671,4.693-.2697,7.0155-.6391,35.1969-5.5991,69.1256-19.0316,98.6166-39.0428,13.3465-9.0563,27.0697-22.331,25.2964-38.3622-21.6058-2.0949-42.7806,7.2632-60.8536,19.2868-19.5584,13.0117-38.0988,31.9123-39.2377,55.3759,33.9773,9.7706,72.9007-.2452,97.9418-25.2025-32.3553,3.2369-56.7225,32.9869-65.4491,64.3109,10.3493,4.7478,22.6463-.2046,31.6779-7.1386,9.0316-6.934,16.6432-15.9337,26.8766-20.9264"/></g><g id="Botella"><g><rect class="cls-7" x="604.0117" y="206.5941" width="145.2133" height="68.1183" rx="23.2685" ry="23.2685" transform="translate(-41.201 262.143) rotate(-21.2938)"/><rect class="cls-7" x="630.6171" y="278.7883" width="129.9603" height="10.1345" rx="1.257" ry="1.257" transform="translate(-55.5942 271.9845) rotate(-21.2938)"/><path class="cls-8" d="M860.607,336.1672l-247.8872,96.6161c-17.3985-44.6392,31.8013-110.5258,31.8013-110.5258l117.8779-45.9439s78.5794,9.4924,98.2081,59.8536Z"/><rect class="cls-7" x="643.9826" y="388.479" width="266.0502" height="199.015" transform="translate(-124.1665 315.4846) rotate(-21.2938)"/><path class="cls-8" d="M708.1564,586.2621h266.0502v48.748c0,46.3616-37.6397,84.0013-84.0013,84.0013h-98.0476c-46.3616,0-84.0013-37.6397-84.0013-84.0013v-48.748h0Z" transform="translate(-179.5781 350.0299) rotate(-21.2938)"/><g><rect class="cls-4" x="594.6083" y="202.4651" width="145.2133" height="68.1183" rx="23.2685" ry="23.2685" transform="translate(-40.3435 258.4463) rotate(-21.2938)"/><rect class="cls-4" x="621.2136" y="274.6593" width="129.9603" height="10.1345" rx="1.257" ry="1.257" transform="translate(-54.7367 268.2878) rotate(-21.2938)"/><path class="cls-4" d="M851.2036,332.0382l-247.8872,96.6161c-17.3985-44.6392,31.8013-110.5258,31.8013-110.5258l117.8779-45.9439s78.5794,9.4924,98.2081,59.8536Z"/><rect class="cls-4" x="634.5792" y="384.3499" width="266.0502" height="199.015" transform="translate(-123.309 311.7879) rotate(-21.2938)"/><path class="cls-4" d="M698.753,582.133h266.0502v48.748c0,46.3616-37.6397,84.0013-84.0013,84.0013h-98.0476c-46.3616,0-84.0013-37.6397-84.0013-84.0013v-48.748h0Z" transform="translate(-178.7206 346.3331) rotate(-21.2938)"/></g></g></g><g id="Brocoli"><g><path class="cls-11" d="M1624.5213,68.0771c-10.1466-20.0045-30.4162-34.9561-52.7897-40.1789-5.2714-1.2305-10.7841-1.9544-16.0155-.8957-11.2383,2.2744-18.6701,11.9966-25.0822,21.0387,1.644-8.7924,2.1733-20.0573-6.0075-24.6803-3.0661-1.7326-6.7623-2.03-10.2392-1.7108-16.1057,1.4786-28.7204,18.4801-37.0755,31.5857,7.5673-16.1162,1.0275-33.4283-13.834-44.7159-12.2509-9.3049-30.1547-11.4018-43.3269-4.2314-11.7631,6.4033-18.6849,19.1138-20.3707,32.1393-1.6857,13.0255,1.2867,26.3769,5.6764,39.0068-12.9439-7.9845-30.0639-4.4499-42.9107,2.8487-13.4101,7.6187-25.1781,21.6719-21.5641,36.5793,3.0987,12.7818,16.0961,21.0589,28.3902,26.9542,9.2139,4.4182,19.0268,8.3845,29.1851,8.4194-13.9524,7.0381-19.2422,26.1545-10.9428,39.5458,9.118,14.7122,29.6324,19.2406,46.8959,16.7118,19.5609-2.8654,37.6219-13.007,49.6218-27.8636,1.4858,19.0597,15.8792,37.3767,35.0836,42.8127,19.2045,5.436,41.6307-3.4576,49.4875-20.7101,4.7419-10.4126,4.2207-22.6649,.6834-33.7731-3.5373-11.1082-9.8865-21.264-16.6463-30.9826,14.9982,8.795,33.4163,11.8104,50.1851,8.2163,2.9291-.6278,5.832-1.4577,8.4408-2.8425,4.455-2.3648,7.8256-6.2269,10.5613-10.3458,12.1081-18.2304,12.7406-42.9237,2.594-62.9282Z"/><path class="cls-5" d="M1618.6369,70.6111c-10.1466-20.0045-30.4162-34.9561-52.7897-40.1789-5.2714-1.2305-10.7841-1.9544-16.0155-.8957-11.2383,2.2744-18.6701,11.9966-25.0822,21.0387,1.644-8.7924,2.1733-20.0573-6.0075-24.6803-3.0661-1.7326-6.7623-2.03-10.2392-1.7108-16.1057,1.4786-28.7204,18.4801-37.0755,31.5857,7.5673-16.1162,1.0275-33.4283-13.834-44.7159-12.2509-9.3049-30.1547-11.4018-43.3269-4.2314-11.7631,6.4033-18.6849,19.1138-20.3707,32.1393-1.6857,13.0255,1.2867,26.3769,5.6764,39.0068-12.9439-7.9845-30.0639-4.4499-42.9107,2.8487-13.4101,7.6187-25.1781,21.6719-21.5641,36.5793,3.0987,12.7818,16.0961,21.0589,28.3902,26.9542,9.2139,4.4182,19.0268,8.3845,29.1851,8.4194-13.9524,7.0381-19.2422,26.1545-10.9428,39.5458,9.118,14.7122,29.6324,19.2406,46.8959,16.7118,19.5609-2.8654,37.6219-13.007,49.6218-27.8636,1.4858,19.0597,15.8792,37.3767,35.0836,42.8127,19.2045,5.436,41.6307-3.4576,49.4875-20.7101,4.7419-10.4126,4.2207-22.6649,.6834-33.7731-3.5373-11.1082-9.8865-21.264-16.6463-30.9826,14.9982,8.795,33.4163,11.8104,50.1851,8.2163,2.9291-.6278,5.832-1.4577,8.4408-2.8425,4.455-2.3648,7.8256-6.2269,10.5613-10.3458,12.1081-18.2304,12.7406-42.9237,2.594-62.9282Z"/><path class="cls-2" d="M1515.3226,189.1508c1.4175,.0979-2.1937,1.5886-2.8652,2.7672-12.9945,22.8078-21.1744,48.2451-23.9231,74.3942-.3697,3.5173-.8451,7.4337-3.6767,9.6185-1.4367,1.1085-3.2933,1.5944-5.1232,1.9216-16.62,2.9719-35.1743-6.4642-42.33-21.5275,14.1399-24.3386,19.7107-53.3756,15.6378-81.5095-1.1343-7.8356-3.059-15.7557-7.3539-22.6025,0,0,21.5946,9.5897,29.9142-.4816,0,0,12.8976,35.5674,39.7201,37.4195Z"/><path class="cls-5" d="M1440.6173,153.541c4.2949,6.8467,6.2196,14.7668,7.3539,22.6025,4.0729,28.1339-1.4979,57.1709-15.6378,81.5095,7.1557,15.0633,25.71,24.4994,42.33,21.5275,1.8299-.3272,3.6864-.8131,5.1232-1.9216,2.8316-2.1848,3.307-6.1012,3.6767-9.6185,2.7487-26.1491,10.9286-51.5864,23.9231-74.3942,.6715-1.1785,1.4958-2.4559,2.8652-2.7672"/><path class="cls-5" d="M1435.606,143.6981c9.7182,7.9032,23.4014,10.9808,35.4127,7.965,1.9537-.4905,3.96-1.1941,5.2265-2.6857,.0553,11.2612,5.9837,22.5465,15.476,29.4604,9.4924,6.9138,22.3128,9.2844,33.4679,6.1882-1.4844-.2487-3.0216-.1261-4.418,.3522"/></g></g><g id="Brocoli-2"><g><path class="cls-11" d="M339.6573,68.4183c-34.9824-14.1393-76.3083-10.2645-109.0433,8.4999-7.7127,4.421-15.1355,9.7675-20.1865,17.0831-10.8506,15.7155-8.6425,36.6624-5.9907,55.5748-8.072-13.1634-20.3009-28.2332-35.3684-24.8564-5.6471,1.2655-10.4095,5.0917-14.2054,9.46-17.5833,20.2349-13.2656,56.4308-8.2991,82.774-9.3465-29.3126-36.939-44.1004-67.61-41.6771-25.2835,1.9976-49.1011,19.6877-56.6754,43.8926-6.7641,21.6156-.5339,45.8195,12.3215,64.4668,12.8554,18.6473,31.6568,32.4099,51.3302,43.6324-24.605,4.4821-41.0547,28.5123-48.0933,52.5114-7.3472,25.0515-5.3826,56.4972,15.9631,71.5277,18.302,12.8873,43.3053,8.7201,64.7473,2.2945,16.0699-4.8157,32.3404-10.8938,44.5356-22.4139-8.6591,24.9233,6.8385,55.4961,32.0595,63.2453,27.7088,8.5136,57.4264-9.0259,75.1961-31.9278,20.1344-25.9496,30.1662-59.5362,27.5617-92.2775,23.5402,22.786,61.6774,29.9232,90.8638,15.0406,29.1865-14.8827,45.8665-51.8362,35.5688-82.9376-6.2151-18.771-20.8284-33.9128-37.7443-44.1515s-36.1092-16.053-55.2946-20.8383c27.9887-5.7802,53.4703-22.8762,69.4318-46.5829,2.7881-4.141,5.3141-8.5116,6.8545-13.2601,2.6306-8.109,2.2541-16.9062,.8245-25.3105-6.3272-37.1975-33.7651-69.6301-68.7475-83.7694Z"/><path class="cls-5" d="M335.5095,78.3719c-34.9824-14.1393-76.3083-10.2645-109.0433,8.4999-7.7127,4.421-15.1355,9.7675-20.1865,17.0831-10.8506,15.7155-8.6425,36.6624-5.9907,55.5748-8.072-13.1634-20.3009-28.2332-35.3684-24.8564-5.6471,1.2655-10.4095,5.0917-14.2054,9.46-17.5833,20.2349-13.2656,56.4308-8.2991,82.774-9.3465-29.3126-36.939-44.1004-67.61-41.6771-25.2835,1.9976-49.1011,19.6877-56.6754,43.8926-6.7641,21.6156-.5339,45.8195,12.3215,64.4668,12.8554,18.6473,31.6568,32.4099,51.3302,43.6324-24.605,4.4821-41.0547,28.5123-48.0933,52.5114-7.3472,25.0515-5.3826,56.4972,15.9631,71.5277,18.302,12.8873,43.3053,8.7201,64.7473,2.2945,16.0699-4.8157,32.3404-10.8938,44.5356-22.4139-8.6591,24.9233,6.8385,55.4961,32.0595,63.2453,27.7088,8.5136,57.4264-9.0259,75.1961-31.9278,20.1344-25.9496,30.1662-59.5362,27.5617-92.2775,23.5402,22.786,61.6774,29.9232,90.8638,15.0406,29.1865-14.8827,45.8665-51.8362,35.5688-82.9376-6.2151-18.771-20.8284-33.9128-37.7443-44.1515s-36.1092-16.053-55.2946-20.8383c27.9887-5.7802,53.4703-22.8762,69.4318-46.5829,2.7881-4.141,5.3141-8.5116,6.8545-13.2601,2.6306-8.109,2.2541-16.9062,.8245-25.3105-6.3272-37.1975-33.7651-69.6301-68.7475-83.7694Z"/><path class="cls-2" d="M347.2345,348.229c1.808-1.4881-.811,4.5377-.2688,6.8157,10.493,44.0851,29.7494,86.0659,56.3175,122.7774,3.5736,4.938,7.4766,10.5089,6.5829,16.5385-.4534,3.0593-2.1202,5.797-3.9362,8.3005-16.4938,22.7382-49.4697,31.7436-75.2313,20.545-10.8703-47.3551-37.3588-90.9883-74.3557-122.4827-10.3041-8.7716-21.6503-16.7518-34.607-20.6551,0,0,36.7891-12.2694,35.2448-34.6751,0,0,56.0439,30.9942,90.2538,2.8359Z"/><path class="cls-5" d="M217.1845,387.5473c12.9568,3.9033,24.303,11.8835,34.607,20.6551,36.9969,31.4944,63.4853,75.1277,74.3557,122.4827,25.7616,11.1986,58.7375,2.1932,75.2313-20.545,1.816-2.5035,3.4827-5.2412,3.9362-8.3005,.8937-6.0296-3.0093-11.6005-6.5829-16.5385-26.568-36.7115-45.8244-78.6924-56.3175-122.7774-.5422-2.278-1.0144-4.857,.2688-6.8157"/><path class="cls-5" d="M199.9496,380.6118c20.6525-.9142,40.5395-12.5398,51.4685-30.0875,1.7777-2.8543,3.3751-6.042,3.1874-9.3993,12.9242,14.3994,32.9036,22.1433,52.1562,20.2156,19.2526-1.9277,37.2999-13.4792,47.1126-30.1552-2.0601,1.3706-3.7596,3.2781-4.8843,5.4821"/></g></g><g id="Ensalada"><g><path class="cls-3" d="M1575.6547,729.2621c11.0897,6.3315,26.3352-1.4013,31.1188-13.2413,4.7836-11.84,1.2482-25.6147-5.3496-36.548-2.0403-3.381-4.4643-7.2309-3.2419-10.9858,.7262-2.2308,2.6135-3.8616,4.4844-5.2772,12.9855-9.8247,28.8419-14.8743,43.662-21.6206,14.8201-6.7462,29.5969-16.1667,36.4307-30.9467,10.13-21.9087-.7307-48.4175-17.4411-65.835-4.5535-4.7462-9.763-9.486-11.2365-15.8961-1.0061-4.377-.1003-8.9541,1.0523-13.2948,4.6441-17.4888,13.2206-33.6563,19.2787-50.707,6.0581-17.0507,9.5273-36.0088,3.6492-53.1224-5.8781-17.1135-23.5311-31.1259-41.3127-27.7731-15.4581,2.9147-26.0291,17.1-33.4227,30.9846-5.6675,10.643-10.425,21.7705-14.2035,33.2212-3.2022,9.7041-7.6372,21.4375-17.7458,22.934-8.8078,1.3039-16.112-6.2006-24.0164-10.2993-11.4511-5.9377-25.9737-4.5801-36.9211,2.2417-10.9474,6.8218-18.3662,18.5644-21.277,31.1306-3.4766,15.0089-.9221,30.6891,1.883,45.8379s5.861,30.6471,3.3481,45.8471c-2.5128,15.2-11.9112,30.3063-26.6186,34.8941-13.4569,4.1977-27.7788-1.0337-41.3892-4.7035-13.6104-3.6698-29.8958-5.171-40.1715,4.4788-3.915,3.6765-6.4476,8.5894-8.3779,13.6011-13.7981,35.8253,4.1565,80.804,38.8321,97.2796l158.9861-2.2001Z"/><path class="cls-5" d="M1406.6686,742.4622c-34.6756-16.4755-52.6302-61.4543-38.8321-97.2796,1.9303-5.0118,4.4629-9.9246,8.3779-13.6011,10.2757-9.6498,26.5611-8.1486,40.1715-4.4788,13.6104,3.6698,27.9322,8.9012,41.3892,4.7035,14.7074-4.5878,24.1058-19.6941,26.6186-34.8941,2.5128-15.2-.543-30.6984-3.3481-45.8471s-5.3596-30.829-1.883-45.8379c2.9108-12.5663,10.3296-24.3088,21.277-31.1306,10.9474-6.8218,25.4701-8.1795,36.9211-2.2417,7.9044,4.0987,15.2085,11.6032,24.0164,10.2993,10.1086-1.4965,14.5436-13.2299,17.7458-22.934,3.7786-11.4507,8.536-22.5781,14.2035-33.2212,7.3936-13.8846,17.9646-28.0699,33.4227-30.9846,17.7816-3.3528,35.4345,10.6596,41.3127,27.7731,5.8781,17.1135,2.4089,36.0717-3.6492,53.1224-6.0581,17.0507-14.6346,33.2182-19.2787,50.707-1.1527,4.3407-2.0585,8.9178-1.0523,13.2948,1.4735,6.4101,6.683,11.1499,11.2365,15.8961,16.7105,17.4175,27.5711,43.9263,17.4411,65.835-6.8338,14.7799-21.6106,24.2005-36.4307,30.9467-14.8201,6.7462-30.6765,11.7959-43.662,21.6206-1.8709,1.4155-3.7582,3.0463-4.4844,5.2772-1.2224,3.755,1.2015,7.6048,3.2419,10.9858,6.5978,10.9333,10.1332,24.708,5.3496,36.548-4.7836,11.84-20.0292,19.5728-31.1188,13.2413"/><path class="cls-5" d="M1483.025,732.3106c.9172,0,135.7452-287.0828,135.7452-287.0828"/><polyline class="cls-5" points="1446.7661 649.661 1495.9347 705.7292 1560.8403 688.4398"/><polyline class="cls-5" points="1513.3363 523.6301 1535.208 622.7723 1612.2221 607.3276"/></g><g><path class="cls-3" d="M1238.1598,729.2621c-11.0897,6.3315-26.3352-1.4013-31.1188-13.2413-4.7836-11.84-1.2482-25.6147,5.3496-36.548,2.0403-3.381,4.4643-7.2309,3.2419-10.9858-.7262-2.2308-2.6135-3.8616-4.4844-5.2772-12.9855-9.8247-28.8419-14.8743-43.662-21.6206-14.8201-6.7462-29.5969-16.1667-36.4307-30.9467-10.13-21.9087,.7307-48.4175,17.4411-65.835,4.5535-4.7462,9.763-9.486,11.2365-15.8961,1.0061-4.377,.1003-8.9541-1.0523-13.2948-4.6441-17.4888-13.2206-33.6563-19.2787-50.707-6.0581-17.0507-9.5273-36.0088-3.6492-53.1224,5.8781-17.1135,23.5311-31.1259,41.3127-27.7731,15.4581,2.9147,26.0291,17.1,33.4227,30.9846,5.6675,10.643,10.425,21.7705,14.2035,33.2212,3.2022,9.7041,7.6372,21.4375,17.7458,22.934,8.8078,1.3039,16.112-6.2006,24.0164-10.2993,11.4511-5.9377,25.9737-4.5801,36.9211,2.2417,10.9474,6.8218,18.3662,18.5644,21.277,31.1306,3.4766,15.0089,.9221,30.6891-1.883,45.8379s-5.861,30.6471-3.3481,45.8471c2.5128,15.2,11.9112,30.3063,26.6186,34.8941,13.4569,4.1977,27.7788-1.0337,41.3892-4.7035,13.6104-3.6698,29.8958-5.171,40.1715,4.4788,3.915,3.6765,6.4476,8.5894,8.3779,13.6011,13.7981,35.8253-4.1565,80.804-38.8321,97.2796l-158.9861-2.2001Z"/><path class="cls-5" d="M1407.1458,742.4622c34.6756-16.4755,52.6302-61.4543,38.8321-97.2796-1.9303-5.0118-4.4629-9.9246-8.3779-13.6011-10.2757-9.6498-26.5611-8.1486-40.1715-4.4788-13.6104,3.6698-27.9322,8.9012-41.3892,4.7035-14.7074-4.5878-24.1058-19.6941-26.6186-34.8941-2.5128-15.2,.543-30.6984,3.3481-45.8471s5.3596-30.829,1.883-45.8379c-2.9108-12.5663-10.3296-24.3088-21.277-31.1306-10.9474-6.8218-25.4701-8.1795-36.9211-2.2417-7.9044,4.0987-15.2085,11.6032-24.0164,10.2993-10.1086-1.4965-14.5436-13.2299-17.7458-22.934-3.7786-11.4507-8.536-22.5781-14.2035-33.2212-7.3936-13.8846-17.9646-28.0699-33.4227-30.9846-17.7816-3.3528-35.4345,10.6596-41.3127,27.7731-5.8781,17.1135-2.4089,36.0717,3.6492,53.1224,6.0581,17.0507,14.6346,33.2182,19.2787,50.707,1.1527,4.3407,2.0585,8.9178,1.0523,13.2948-1.4735,6.4101-6.683,11.1499-11.2365,15.8961-16.7105,17.4175-27.5711,43.9263-17.4411,65.835,6.8338,14.7799,21.6106,24.2005,36.4307,30.9467,14.8201,6.7462,30.6765,11.7959,43.662,21.6206,1.8709,1.4155,3.7582,3.0463,4.4844,5.2772,1.2224,3.755-1.2015,7.6048-3.2419,10.9858-6.5978,10.9333-10.1332,24.708-5.3496,36.548,4.7836,11.84,20.0292,19.5728,31.1188,13.2413"/><path class="cls-5" d="M1330.7895,732.3106c-.9172,0-135.7452-287.0828-135.7452-287.0828"/><polyline class="cls-5" points="1367.0484 649.661 1317.8798 705.7292 1252.9742 688.4398"/><polyline class="cls-5" points="1300.4782 523.6301 1278.6065 622.7723 1201.5923 607.3276"/></g><g><path class="cls-1" d="M1221.7748,741.5297h343.2426c12.9444,0,23.4537,10.5092,23.4537,23.4537v67.2835c0,85.8305-69.6835,155.5139-155.5139,155.5139h-79.1221c-85.8305,0-155.5139-69.6835-155.5139-155.5139v-67.2835c0-12.9444,10.5092-23.4537,23.4537-23.4537Z"/><path class="cls-1" d="M1221.7748,737.5034h343.2426c12.9444,0,23.4537,10.5092,23.4537,23.4537v67.2835c0,85.8305-69.6835,155.5139-155.5139,155.5139h-79.1221c-85.8305,0-155.5139-69.6835-155.5139-155.5139v-67.2835c0-12.9444,10.5092-23.4537,23.4537-23.4537Z"/><path class="cls-5" d="M1233.7748,731.5297h343.2426c12.9444,0,23.4537,10.5092,23.4537,23.4537v67.2835c0,85.8305-69.6835,155.5139-155.5139,155.5139h-79.1221c-85.8305,0-155.5139-69.6835-155.5139-155.5139v-67.2835c0-12.9444,10.5092-23.4537,23.4537-23.4537Z"/><line class="cls-5" x1="1320.5601" y1="943.7039" x2="1395.5503" y2="943.7039"/><line class="cls-5" x1="1283.0649" y1="913.0032" x2="1358.0552" y2="913.0032"/><line class="cls-5" x1="1257.3972" y1="875.7598" x2="1332.3874" y2="875.7598"/></g></g></svg>